<svg xmlns="http://www.w3.org/2000/svg" viewBox="0 0 321 77">
  <defs>
    <linearGradient id="gradient" x1="2%" y1="35%" x2="93%" y2="91%">
      <stop stop-color="var(--lunar-stop-1, #d8bfd8)" offset="0%"></stop>
      <stop stop-color="var(--lunar-stop-2, #afa2e3)" offset="25%"></stop>
      <stop stop-color="var(--lunar-stop-3, #919be9)" offset="50%"></stop>
      <stop stop-color="var(--lunar-stop-4, #7d98eb)" offset="75%"></stop>
      <stop stop-color="var(--lunar-stop-5, #6495ed)" offset="100%"></stop>
    </linearGradient>
  </defs>
  <style>
    #text {
      fill: #3c3c43;
      stroke: #3c3c43;
    }

    @media (prefers-color-scheme: dark) {
      #text {
        fill: #dfdfd6;
        stroke: #dfdfd6;
      }
    }
  </style>
  <path
    d="M31.0459 25.4247c0 18.8125 13.8075 34.398 31.8412 37.1803 1.0733.1655 1.4928 1.494.707 2.2437-6.835 6.5222-16.123 10.4965-26.3392 10.3983C16.6072 75.0487-.0966 58.0922.0004 37.4438.0977 16.7475 16.9052 0 37.6244 0c.1598 0 .3195.001.4788.003 1.0938.0143 1.6963 1.27 1.0185 2.1282-5.0575 6.4067-8.0757 14.4975-8.0757 23.2935"
    fill="url(#gradient)" />
  <path
    d="M278.625 54.276l3.75-3.975q2.4 2.775 5.513 4.388a14.671 14.671 0 006.02 1.585 18.161 18.161 0 00.992.027 13.682 13.682 0 003.328-.378 9 9 0 003.234-1.497q2.513-1.875 2.513-4.875 0-2.475-2.137-3.937a8.68 8.68 0 00-1.73-.883q-1.81-.71-4.632-1.182a44.263 44.263 0 00-.951-.148q-5.881-.952-9.147-2.531a11.512 11.512 0 01-1.915-1.144q-3.188-2.4-3.188-6.675a10.443 10.443 0 01.845-4.263 9.881 9.881 0 013.13-3.874 14.181 14.181 0 015.29-2.477q1.975-.486 4.274-.551a25.324 25.324 0 01.711-.01 20.331 20.331 0 015.178.635 16.875 16.875 0 013.147 1.165 20.462 20.462 0 016.436 4.998 23.603 23.603 0 01.089.102l-3.75 3.975a16.964 16.964 0 00-4.163-3.966 15.289 15.289 0 00-.674-.421 11.896 11.896 0 00-5.609-1.599 14.944 14.944 0 00-.654-.014q-3.675 0-6 1.688-2.325 1.687-2.325 4.312 0 2.1 1.95 3.338a8.262 8.262 0 001.512.726q1.985.746 5.388 1.261 8.175 1.2 11.55 3.863a8.705 8.705 0 013.306 6.192 12.816 12.816 0 01.069 1.345q0 3.45-1.95 6.113a12.283 12.283 0 01-4.432 3.69 15.647 15.647 0 01-.93.435 18.113 18.113 0 01-5.136 1.319 23.466 23.466 0 01-2.627.143q-5.4 0-9.3-1.837-3.9-1.838-6.975-5.063Zm-86.1-16.2v21.9H186.75V38.751a22.235 22.235 0 00-.238-3.374q-.262-1.701-.812-3.06a9.054 9.054 0 00-1.388-2.378 8.004 8.004 0 00-6.306-2.96 11.27 11.27 0 00-.256-.003q-3 0-5.625 1.688a10.381 10.381 0 00-2.9 2.871 15.613 15.613 0 00-1.375 2.454 16.466 16.466 0 00-1.068 3.308q-.364 1.672-.5 3.639a35.685 35.685 0 00-.082 2.465V59.976h-5.775v-36.9h5.7v7.575a16.175 16.175 0 011.669-3.321 10.731 10.731 0 013.656-3.466q3.525-1.988 7.425-1.988a15.907 15.907 0 014.059.492 11.672 11.672 0 015.953 3.671 13.218 13.218 0 012.471 4.307q1.167 3.27 1.167 7.73Zm-44.85-15v36.9h-5.7v-5.85q-1.8 3.225-5.063 5.138a14.114 14.114 0 01-6.299 1.874 17.624 17.624 0 01-1.163.038q-6.225 0-9.975-3.975a12.647 12.647 0 01-2.753-4.678q-.608-1.785-.845-3.918a26.053 26.053 0 01-.152-2.879V23.076H121.5v22.05q0 3.87 1.232 6.41a8.421 8.421 0 001.168 1.803 7.904 7.904 0 005.125 2.705 11.851 11.851 0 001.625.107q3.825 0 6.9-2.362 3.075-2.363 4.35-6.338V23.076h5.775ZM232.65 49.401l3.9 3.75a20.916 20.916 0 01-3.611 3.904 17.384 17.384 0 01-3.252 2.134 18.796 18.796 0 01-8.074 1.98 22.124 22.124 0 01-.588.007 20.561 20.561 0 01-5.374-.678 17.206 17.206 0 01-4.413-1.872q-4.238-2.55-6.6-7.012-1.814-3.425-2.235-7.534a25.008 25.008 0 01-.128-2.554q0-5.625 2.363-10.087 2.362-4.463 6.45-7.013a16.935 16.935 0 018.869-2.547 20.215 20.215 0 01.318-.003q5.025 0 8.888 2.475a16.716 16.716 0 015.829 6.456 20.036 20.036 0 01.208.407 20.698 20.698 0 011.912 6.283 26.645 26.645 0 01.263 3.804v2.25H208.35a16.795 16.795 0 001.137 4.614 13.699 13.699 0 002.951 4.461 11.75 11.75 0 007.619 3.47 15.918 15.918 0 001.343.055q3.45 0 6.225-1.65a13.597 13.597 0 003.11-2.594 19.971 19.971 0 001.915-2.506ZM208.425 38.826h22.95a18.666 18.666 0 00-.782-3.934q-.9-2.8-2.705-4.766a9.843 9.843 0 00-7.468-3.224 13.292 13.292 0 00-.145-.001q-4.65 0-7.912 3.3-3.263 3.3-3.938 8.625ZM107.175 54.651v5.325H75V6.351h6v48.3h26.175ZM261.6 74.526h-3.75v-4.8h2.325a5.971 5.971 0 001.941-.281 3.094 3.094 0 001.322-.844 3.813 3.813 0 00.832-1.752 8.501 8.501 0 00.18-1.848V23.076h5.775v42.45q0 8.759-8.169 8.994a15.881 15.881 0 01-.456.006ZM249 60.876q-1.875 0-3.112-1.275-1.238-1.275-1.238-3.15t1.238-3.15q1.237-1.275 3.112-1.275t3.113 1.275q1.237 1.275 1.237 3.15t-1.237 3.15q-1.238 1.275-3.113 1.275Zm22.35-51.75q0 1.8-1.162 2.963-1.163 1.162-2.888 1.162-1.725 0-2.887-1.162-1.163-1.163-1.163-2.963 0-1.8 1.163-2.962 1.162-1.163 2.887-1.163t2.888 1.163q1.162 1.162 1.162 2.962Z"
    id="text" />
</svg>
